<svg width="285" height="159" viewBox="0 0 285 159" fill="none" xmlns="http://www.w3.org/2000/svg">
<path d="M101.926 16.5H266.589C268.719 16.5 270.445 18.2258 270.445 20.3558V136.931C270.445 139.06 268.719 140.786 266.589 140.786H101.935C99.805 140.786 98.0791 139.06 98.0791 136.931V20.3474C98.0791 18.2258 99.805 16.5 101.926 16.5Z" fill="#272727"/>
<g style="mix-blend-mode:multiply">
<path d="M98.0791 19.2188V76.4916C98.0791 78.6132 99.805 80.339 101.935 80.339H266.589C268.719 80.339 270.445 78.6132 270.445 76.4916V19.2188H98.0791Z" fill="#C7C9CE"/>
</g>
<path d="M98.0791 16.5V73.7729C98.0791 75.9028 99.805 77.6203 101.935 77.6203H266.589C268.719 77.6203 270.445 75.8944 270.445 73.7729V16.5H98.0791Z" fill="#1A3743"/>
<path d="M98.0791 13.7227V70.9956C98.0791 73.1171 99.805 74.8429 101.935 74.8429H266.589C268.719 74.8429 270.445 73.1171 270.445 70.9956V13.7227H98.0791Z" fill="black"/>
<path d="M198.927 68.832H169.588V86.402H198.927V68.832Z" fill="#E8F1F2"/>
<path d="M192.141 72.8984H176.373V82.3443H192.141V72.8984Z" fill="black"/>
<path d="M201.133 11.1801V2.62666C201.133 2.62666 189.515 0 185.289 0C181.063 0 167.374 2.62666 167.374 2.62666V11.1801H154.182V13.7226H169.916V6.60032H198.582V13.7226H214.325V11.1801H201.133Z" fill="#001A23"/>
<g style="mix-blend-mode:multiply">
<path d="M156.976 134.489C143.087 134.489 130.295 135.228 120.124 136.478C118.377 131.496 92.1754 127.543 60.1137 127.543C28.0519 127.543 0 131.785 0 137.005C0 142.225 26.9123 146.476 60.1051 146.476C62.547 146.476 64.946 146.45 67.3108 146.408C66.5911 147.292 66.2056 148.244 66.2056 149.222C66.2056 154.45 77.2755 158.692 90.9416 158.692C103.22 158.692 113.399 155.275 115.335 150.786C126.139 152.418 140.816 153.43 156.984 153.43C190.177 153.43 279.503 148.346 279.503 143.118C283.292 138.487 295.858 130.49 262.666 130.49L156.976 134.489Z" fill="#D8DADE"/>
</g>
<path d="M125.095 93.0195H22.9246V94.7791H125.095V93.0195Z" fill="#96C053"/>
<path d="M125.322 94.8886H22.6973V92.9102H125.322V94.8886ZM23.1603 94.6697H124.867V93.129H23.1603V94.6697Z" fill="#456224"/>
<path d="M125.095 94.8867H22.9246V96.6462H125.095V94.8867Z" fill="#96C053"/>
<path d="M125.322 96.7558H22.6973V94.7773H125.322V96.7558ZM23.1603 96.5369H124.867V94.9962H23.1603V96.5369Z" fill="#456224"/>
<path d="M125.095 96.7578H22.9246V98.5173H125.095V96.7578Z" fill="#96C053"/>
<path d="M125.322 98.6269H22.6973V96.6484H125.322V98.6269ZM23.1603 98.408H124.867V96.8673H23.1603V98.408Z" fill="#456224"/>
<path d="M125.095 98.625H22.9246V100.385H125.095V98.625Z" fill="#96C053"/>
<path d="M125.322 100.494H22.6973V98.5156H125.322V100.494ZM23.1603 100.275H124.867V98.7345H23.1603V100.275Z" fill="#456224"/>
<path d="M125.095 100.496H22.9246V102.256H125.095V100.496Z" fill="#96C053"/>
<path d="M125.322 102.357H22.6973V100.379H125.322V102.357ZM23.1603 102.138H124.867V100.598H23.1603V102.138Z" fill="#456224"/>
<path d="M125.095 102.355H22.9246V104.115H125.095V102.355Z" fill="#96C053"/>
<path d="M125.322 104.225H22.6973V102.246H125.322V104.225ZM23.1603 104.006H124.867V102.465H23.1603V104.006Z" fill="#456224"/>
<path d="M125.095 104.227H22.9246V105.986H125.095V104.227Z" fill="#96C053"/>
<path d="M125.322 106.096H22.6973V104.117H125.322V106.096ZM23.1603 105.877H124.867V104.336H23.1603V105.877Z" fill="#456224"/>
<path d="M125.095 106.094H22.9246V107.853H125.095V106.094Z" fill="#96C053"/>
<path d="M125.322 107.963H22.6973V105.984H125.322V107.963ZM23.1603 107.744H124.867V106.203H23.1603V107.744Z" fill="#456224"/>
<path d="M88.0438 92.9102H59.9756V107.954H88.0438V92.9102Z" fill="#AAABA3"/>
<path d="M85.9475 92.9102H62.0803V107.954H85.9475V92.9102Z" fill="#F2EDCD"/>
<path d="M125.095 99.8984H22.9246V101.658H125.095V99.8984Z" fill="#96C053"/>
<path d="M125.322 101.767H22.6973V99.7891H125.322V101.767ZM23.1603 101.549H124.867V100.008H23.1603V101.549Z" fill="#456224"/>
<path d="M125.095 101.766H22.9245V103.525H125.095V101.766Z" fill="#96C053"/>
<path d="M125.322 103.635H22.6973V101.656H125.322V103.635ZM23.1603 103.416H124.867V101.875H23.1603V103.416Z" fill="#456224"/>
<path d="M125.095 103.637H22.9245V105.396H125.095V103.637Z" fill="#96C053"/>
<path d="M125.322 105.506H22.6973V103.527H125.322V105.506ZM23.1603 105.287H124.867V103.746H23.1603V105.287Z" fill="#456224"/>
<path d="M125.095 105.504H22.9245V107.263H125.095V105.504Z" fill="#96C053"/>
<path d="M125.322 107.365H22.6973V105.387H125.322V107.365ZM23.1603 107.146H124.867V105.606H23.1603V107.146Z" fill="#456224"/>
<path d="M125.095 107.367H22.9245V109.127H125.095V107.367Z" fill="#96C053"/>
<path d="M125.322 109.236H22.6973V107.258H125.322V109.236ZM23.1603 109.017H124.867V107.477H23.1603V109.017Z" fill="#456224"/>
<path d="M125.095 109.234H22.9245V110.994H125.095V109.234Z" fill="#96C053"/>
<path d="M125.322 111.103H22.6973V109.125H125.322V111.103ZM23.1603 110.885H124.867V109.344H23.1603V110.885Z" fill="#456224"/>
<path d="M125.095 111.105H22.9245V112.865H125.095V111.105Z" fill="#96C053"/>
<path d="M125.322 112.975H22.6973V110.996H125.322V112.975ZM23.1603 112.756H124.867V111.223H23.1603V112.756Z" fill="#456224"/>
<path d="M125.095 112.973H22.9245V114.732H125.095V112.973Z" fill="#96C053"/>
<path d="M125.322 114.842H22.6973V112.863H125.322V114.842ZM23.1603 114.623H124.867V113.082H23.1603V114.623Z" fill="#456224"/>
<g style="mix-blend-mode:multiply">
<path d="M125.322 114.841H22.9246C22.9246 114.841 125.322 110.118 125.322 99.9062V114.841Z" fill="#C5C7CC"/>
</g>
<path d="M88.0437 99.7891H59.9756V114.842H88.0437V99.7891Z" fill="#AAABA3"/>
<path d="M85.9475 99.7891H62.0803V114.842H85.9475V99.7891Z" fill="#F2EDCD"/>
<path d="M110.707 114.934H8.53688V116.693H110.707V114.934Z" fill="#96C053"/>
<path d="M110.934 116.803H8.30957V114.824H110.934V116.803ZM8.76418 116.584H110.471V115.043H8.76418V116.584Z" fill="#456224"/>
<path d="M110.707 116.801H8.53688V118.56H110.707V116.801Z" fill="#96C053"/>
<path d="M110.934 118.67H8.30957V116.691H110.934V118.67ZM8.76418 118.451H110.471V116.91H8.76418V118.451Z" fill="#456224"/>
<path d="M110.707 118.672H8.53688V120.431H110.707V118.672Z" fill="#96C053"/>
<path d="M110.934 120.541H8.30957V118.562H110.934V120.541ZM8.76418 120.322H110.471V118.781H8.76418V120.322Z" fill="#456224"/>
<path d="M110.707 120.539H8.53688V122.299H110.707V120.539Z" fill="#96C053"/>
<path d="M110.934 122.408H8.30957V120.43H110.934V122.408ZM8.76418 122.189H110.471V120.649H8.76418V122.189Z" fill="#456224"/>
<path d="M110.707 122.41H8.53688V124.17H110.707V122.41Z" fill="#96C053"/>
<path d="M110.934 124.271H8.30957V122.293H110.934V124.271ZM8.76418 124.052H110.471V122.512H8.76418V124.052Z" fill="#456224"/>
<path d="M110.707 124.27H8.53688V126.029H110.707V124.27Z" fill="#96C053"/>
<path d="M110.934 126.139H8.30957V124.16H110.934V126.139ZM8.76418 125.92H110.471V124.379H8.76418V125.92Z" fill="#456224"/>
<path d="M110.707 126.141H8.53688V127.9H110.707V126.141Z" fill="#96C053"/>
<path d="M110.934 128.01H8.30957V126.031H110.934V128.01ZM8.76418 127.791H110.471V126.25H8.76418V127.791Z" fill="#456224"/>
<path d="M110.707 128.008H8.53688V129.767H110.707V128.008Z" fill="#96C053"/>
<path d="M110.934 129.877H8.30957V127.898H110.934V129.877ZM8.76418 129.658H110.471V128.117H8.76418V129.658Z" fill="#456224"/>
<path d="M73.6561 114.824H45.5879V129.869H73.6561V114.824Z" fill="#AAABA3"/>
<path d="M71.5514 114.824H47.6926V129.869H71.5514V114.824Z" fill="#F2EDCD"/>
<path d="M110.707 121.82H8.53688V123.58H110.707V121.82Z" fill="#96C053"/>
<path d="M110.934 123.682H8.30957V121.703H110.934V123.682ZM8.76418 123.463H110.471V121.922H8.76418V123.463Z" fill="#456224"/>
<path d="M110.707 123.68H8.53688V125.439H110.707V123.68Z" fill="#96C053"/>
<path d="M110.934 125.549H8.30957V123.57H110.934V125.549ZM8.76418 125.33H110.471V123.789H8.76418V125.33Z" fill="#456224"/>
<path d="M110.707 125.551H8.53688V127.31H110.707V125.551Z" fill="#96C053"/>
<path d="M110.934 127.42H8.30957V125.441H110.934V127.42ZM8.76418 127.201H110.471V125.66H8.76418V127.201Z" fill="#456224"/>
<path d="M110.707 127.418H8.53688V129.177H110.707V127.418Z" fill="#96C053"/>
<path d="M110.934 129.287H8.30957V127.309H110.934V129.287ZM8.76418 129.068H110.471V127.527H8.76418V129.068Z" fill="#456224"/>
<path d="M110.707 129.289H8.53688V131.049H110.707V129.289Z" fill="#96C053"/>
<path d="M110.934 131.15H8.30957V129.172H110.934V131.15ZM8.76418 130.931H110.471V129.391H8.76418V130.931Z" fill="#456224"/>
<path d="M110.707 131.148H8.53688V132.908H110.707V131.148Z" fill="#96C053"/>
<path d="M110.934 133.017H8.30957V131.039H110.934V133.017ZM8.76418 132.799H110.471V131.258H8.76418V132.799Z" fill="#456224"/>
<path d="M110.707 133.02H8.53688V134.771H110.707V133.02Z" fill="#96C053"/>
<path d="M110.934 134.889H8.30957V132.91H110.934V134.889ZM8.76418 134.67H110.471V133.129H8.76418V134.67Z" fill="#456224"/>
<path d="M110.707 134.887H8.53688V136.646H110.707V134.887Z" fill="#96C053"/>
<path d="M110.934 136.756H8.30957V134.777H110.934V136.756ZM8.76418 136.537H110.471V134.996H8.76418V136.537Z" fill="#456224"/>
<path d="M73.6561 121.703H45.5879V136.747H73.6561V121.703Z" fill="#AAABA3"/>
<path d="M71.5514 121.703H47.6926V136.747H71.5514V121.703Z" fill="#F2EDCD"/>
<g style="mix-blend-mode:multiply">
<path d="M81.6623 93.0195H65.9866V136.94H81.6623V93.0195Z" fill="#C3C5CA"/>
</g>
<path d="M204.029 121.719H101.859V123.478H204.029V121.719Z" fill="#96C053"/>
<path d="M204.248 123.588H101.623V121.609H204.248V123.588ZM102.086 123.369H203.793V121.828H102.086V123.369Z" fill="#456224"/>
<path d="M204.029 123.586H101.859V125.345H204.029V123.586Z" fill="#96C053"/>
<path d="M204.248 125.455H101.623V123.477H204.248V125.455ZM102.086 125.236H203.793V123.695H102.086V125.236Z" fill="#456224"/>
<path d="M204.029 125.457H101.859V127.217H204.029V125.457Z" fill="#96C053"/>
<path d="M204.248 127.326H101.623V125.348H204.248V127.326ZM102.086 127.107H203.793V125.567H102.086V127.107Z" fill="#456224"/>
<path d="M204.029 127.324H101.859V129.084H204.029V127.324Z" fill="#96C053"/>
<path d="M204.248 129.185H101.623V127.207H204.248V129.185ZM102.086 128.967H203.793V127.426H102.086V128.967Z" fill="#456224"/>
<path d="M204.029 129.188H101.859V130.947H204.029V129.188Z" fill="#96C053"/>
<path d="M204.248 131.057H101.623V129.078H204.248V131.057ZM102.086 130.838H203.793V129.297H102.086V130.838Z" fill="#456224"/>
<path d="M204.029 131.055H101.859V132.814H204.029V131.055Z" fill="#96C053"/>
<path d="M204.248 132.924H101.623V130.945H204.248V132.924ZM102.086 132.705H203.793V131.164H102.086V132.705Z" fill="#456224"/>
<path d="M204.029 132.926H101.859V134.685H204.029V132.926Z" fill="#96C053"/>
<path d="M204.248 134.795H101.623V132.816H204.248V134.795ZM102.086 134.576H203.793V133.035H102.086V134.576Z" fill="#456224"/>
<path d="M204.029 134.793H101.859V136.552H204.029V134.793Z" fill="#96C053"/>
<path d="M204.248 136.654H101.623V134.676H204.248V136.654ZM102.086 136.435H203.793V134.895H102.086V136.435Z" fill="#456224"/>
<path d="M166.97 121.609H138.902V136.662H166.97V121.609Z" fill="#AAABA3"/>
<path d="M164.873 121.609H141.006V136.662H164.873V121.609Z" fill="#F2EDCD"/>
<path d="M204.029 128.598H101.859V130.357H204.029V128.598Z" fill="#96C053"/>
<path d="M204.248 130.467H101.623V128.488H204.248V130.467ZM102.086 130.248H203.793V128.707H102.086V130.248Z" fill="#456224"/>
<path d="M204.029 130.465H101.859V132.224H204.029V130.465Z" fill="#96C053"/>
<path d="M204.248 132.334H101.623V130.355H204.248V132.334ZM102.086 132.115H203.793V130.574H102.086V132.115Z" fill="#456224"/>
<path d="M204.029 132.336H101.859V134.095H204.029V132.336Z" fill="#96C053"/>
<path d="M204.248 134.205H101.623V132.227H204.248V134.205ZM102.086 133.986H203.793V132.445H102.086V133.986Z" fill="#456224"/>
<path d="M204.029 134.203H101.859V135.963H204.029V134.203Z" fill="#96C053"/>
<path d="M204.248 136.064H101.623V134.086H204.248V136.064ZM102.086 135.845H203.793V134.305H102.086V135.845Z" fill="#456224"/>
<path d="M204.029 136.066H101.859V137.818H204.029V136.066Z" fill="#96C053"/>
<path d="M204.248 137.935H101.623V135.957H204.248V137.935ZM102.086 137.717H203.793V136.176H102.086V137.717Z" fill="#456224"/>
<path d="M204.029 137.934H101.859V139.693H204.029V137.934Z" fill="#96C053"/>
<path d="M204.248 139.803H101.623V137.824H204.248V139.803ZM102.086 139.584H203.793V138.043H102.086V139.584Z" fill="#456224"/>
<path d="M204.029 139.805H101.859V141.564H204.029V139.805Z" fill="#96C053"/>
<path d="M204.248 141.674H101.623V139.695H204.248V141.674ZM102.086 141.455H203.793V139.914H102.086V141.455Z" fill="#456224"/>
<path d="M204.029 141.672H101.859V143.431H204.029V141.672Z" fill="#96C053"/>
<path d="M204.248 143.533H101.623V141.555H204.248V143.533ZM102.086 143.314H203.793V141.774H102.086V143.314Z" fill="#456224"/>
<path d="M166.97 128.488H138.902V143.533H166.97V128.488Z" fill="#AAABA3"/>
<path d="M164.873 128.488H141.006V143.533H164.873V128.488Z" fill="#F2EDCD"/>
<path d="M188.337 99.8555H86.1748V101.615H188.337V99.8555Z" fill="#96C053"/>
<path d="M188.572 101.717H85.9475V99.7383H188.572V101.717ZM86.4021 101.498H188.109V99.9656H86.4021V101.498Z" fill="#456224"/>
<path d="M188.337 101.715H86.1748V103.474H188.337V101.715Z" fill="#96C053"/>
<path d="M188.572 103.584H85.9475V101.605H188.572V103.584ZM86.4021 103.365H188.109V101.824H86.4021V103.365Z" fill="#456224"/>
<path d="M188.337 103.586H86.1748V105.345H188.337V103.586Z" fill="#96C053"/>
<path d="M188.572 105.455H85.9475V103.477H188.572V105.455ZM86.4021 105.236H188.109V103.695H86.4021V105.236Z" fill="#456224"/>
<path d="M188.337 105.453H86.1748V107.213H188.337V105.453Z" fill="#96C053"/>
<path d="M188.572 107.322H85.9475V105.344H188.572V107.322ZM86.4021 107.103H188.109V105.563H86.4021V107.103Z" fill="#456224"/>
<path d="M188.337 107.324H86.1748V109.084H188.337V107.324Z" fill="#96C053"/>
<path d="M188.572 109.193H85.9475V107.215H188.572V109.193ZM86.4021 108.974H188.109V107.434H86.4021V108.974Z" fill="#456224"/>
<path d="M188.337 109.191H86.1748V110.951H188.337V109.191Z" fill="#96C053"/>
<path d="M188.572 111.053H85.9475V109.074H188.572V111.053ZM86.4021 110.834H188.109V109.293H86.4021V110.834Z" fill="#456224"/>
<path d="M188.337 111.055H86.1748V112.814H188.337V111.055Z" fill="#96C053"/>
<path d="M188.572 112.924H85.9475V110.945H188.572V112.924ZM86.4021 112.705H188.109V111.164H86.4021V112.705Z" fill="#456224"/>
<path d="M188.337 112.922H86.1748V114.681H188.337V112.922Z" fill="#96C053"/>
<path d="M188.572 114.791H85.9475V112.812H188.572V114.791ZM86.4021 114.572H188.109V113.031H86.4021V114.572Z" fill="#456224"/>
<path d="M151.294 99.7383H123.226V114.783H151.294V99.7383Z" fill="#AAABA3"/>
<path d="M149.19 99.7383H125.322V114.783H149.19V99.7383Z" fill="#F2EDCD"/>
<path d="M188.337 106.727H86.1748V108.486H188.337V106.727Z" fill="#96C053"/>
<path d="M188.572 108.596H85.9475V106.617H188.572V108.596ZM86.4021 108.377H188.109V106.836H86.4021V108.377Z" fill="#456224"/>
<path d="M188.337 108.594H86.1748V110.353H188.337V108.594Z" fill="#96C053"/>
<path d="M188.572 110.463H85.9475V108.484H188.572V110.463ZM86.4021 110.244H188.109V108.703H86.4021V110.244Z" fill="#456224"/>
<path d="M188.337 110.465H86.1748V112.224H188.337V110.465Z" fill="#96C053"/>
<path d="M188.572 112.334H85.9475V110.355H188.572V112.334ZM86.4021 112.115H188.109V110.574H86.4021V112.115Z" fill="#456224"/>
<path d="M188.337 112.332H86.1748V114.092H188.337V112.332Z" fill="#96C053"/>
<path d="M188.572 114.201H85.9475V112.223H188.572V114.201ZM86.4021 113.982H188.109V112.442H86.4021V113.982Z" fill="#456224"/>
<path d="M188.337 114.203H86.1748V115.963H188.337V114.203Z" fill="#96C053"/>
<path d="M188.572 116.064H85.9475V114.086H188.572V116.064ZM86.4021 115.845H188.109V114.305H86.4021V115.845Z" fill="#456224"/>
<path d="M188.337 116.062H86.1748V117.822H188.337V116.062Z" fill="#96C053"/>
<path d="M188.572 117.932H85.9475V115.953H188.572V117.932ZM86.4021 117.713H188.109V116.172H86.4021V117.713Z" fill="#456224"/>
<path d="M188.337 117.934H86.1748V119.693H188.337V117.934Z" fill="#96C053"/>
<path d="M188.572 119.803H85.9475V117.824H188.572V119.803ZM86.4021 119.584H188.109V118.043H86.4021V119.584Z" fill="#456224"/>
<path d="M188.337 119.801H86.1748V121.56H188.337V119.801Z" fill="#96C053"/>
<path d="M188.572 121.67H85.9475V119.691H188.572V121.67ZM86.4021 121.451H188.109V119.91H86.4021V121.451Z" fill="#456224"/>
<path d="M151.294 106.617H123.226V121.662H151.294V106.617Z" fill="#AAABA3"/>
<path d="M149.19 106.617H125.322V121.662H149.19V106.617Z" fill="#F2EDCD"/>
<path d="M176.407 77.5781H74.237V79.3376H176.407V77.5781Z" fill="#96C053"/>
<path d="M176.634 79.4472H74.0097V77.4688H176.634V79.4472ZM74.4727 79.2283H176.18V77.6876H74.4727V79.2283Z" fill="#456224"/>
<path d="M176.407 79.4453H74.237V81.2048H176.407V79.4453Z" fill="#96C053"/>
<path d="M176.634 81.3065H74.0097V79.3281H176.634V81.3065ZM74.4727 81.0876H176.18V79.547H74.4727V81.0876Z" fill="#456224"/>
<path d="M176.407 81.3086H74.237V83.0681H176.407V81.3086Z" fill="#96C053"/>
<path d="M176.634 83.1776H74.0097V81.1992H176.634V83.1776ZM74.4727 82.9587H176.18V81.4181H74.4727V82.9587Z" fill="#456224"/>
<path d="M176.407 83.1758H74.237V84.9353H176.407V83.1758Z" fill="#96C053"/>
<path d="M176.634 85.0448H74.0097V83.0664H176.634V85.0448ZM74.4727 84.8259H176.18V83.2853H74.4727V84.8259Z" fill="#456224"/>
<path d="M176.407 85.0469H74.237V86.8064H176.407V85.0469Z" fill="#96C053"/>
<path d="M176.634 86.9159H74.0097V84.9375H176.634V86.9159ZM74.4727 86.697H176.18V85.1648H74.4727V86.697Z" fill="#456224"/>
<path d="M176.407 86.9141H74.237V88.6736H176.407V86.9141Z" fill="#96C053"/>
<path d="M176.634 88.7753H74.0097V86.7969H176.634V88.7753ZM74.4727 88.5564H176.18V87.0158H74.4727V88.5564Z" fill="#456224"/>
<path d="M176.407 88.7734H74.237V90.533H176.407V88.7734Z" fill="#96C053"/>
<path d="M176.634 90.6425H74.0097V88.6641H176.634V90.6425ZM74.4727 90.4236H176.18V88.883H74.4727V90.4236Z" fill="#456224"/>
<path d="M176.407 90.6445H74.237V92.3956H176.407V90.6445Z" fill="#96C053"/>
<path d="M176.634 92.5136H74.0097V90.5352H176.634V92.5136ZM74.4727 92.2947H176.18V90.754H74.4727V92.2947Z" fill="#456224"/>
<path d="M139.356 77.4688H111.288V92.5131H139.356V77.4688Z" fill="#AAABA3"/>
<path d="M137.251 77.4688H113.393V92.5131H137.251V77.4688Z" fill="#F2EDCD"/>
<path d="M176.407 84.457H74.237V86.2166H176.407V84.457Z" fill="#96C053"/>
<path d="M176.634 86.3261H74.0097V84.3477H176.634V86.3261ZM74.4727 86.1072H176.18V84.5665H74.4727V86.1072Z" fill="#456224"/>
<path d="M176.407 86.3242H74.237V88.0837H176.407V86.3242Z" fill="#96C053"/>
<path d="M176.634 88.1854H74.0097V86.207H176.634V88.1854ZM74.4727 87.9666H176.18V86.4259H74.4727V87.9666Z" fill="#456224"/>
<path d="M176.407 88.1875H74.237V89.947H176.407V88.1875Z" fill="#96C053"/>
<path d="M176.634 90.0565H74.0097V88.0781H176.634V90.0565ZM74.4727 89.8376H176.18V88.297H74.4727V89.8376Z" fill="#456224"/>
<path d="M176.407 90.0547H74.237V91.8142H176.407V90.0547Z" fill="#96C053"/>
<path d="M176.634 91.9237H74.0097V89.9453H176.634V91.9237ZM74.4727 91.7048H176.18V90.1642H74.4727V91.7048Z" fill="#456224"/>
<path d="M176.407 91.9258H74.237V93.6853H176.407V91.9258Z" fill="#96C053"/>
<path d="M176.634 93.7948H74.0097V91.8164H176.634V93.7948ZM74.4727 93.5759H176.18V92.0353H74.4727V93.5759Z" fill="#456224"/>
<path d="M176.407 93.793H74.237V95.5525H176.407V93.793Z" fill="#96C053"/>
<path d="M176.634 95.6542H74.0097V93.6758H176.634V95.6542ZM74.4727 95.4353H176.18V93.8947H74.4727V95.4353Z" fill="#456224"/>
<path d="M176.407 95.6523H74.237V97.4119H176.407V95.6523Z" fill="#96C053"/>
<path d="M176.634 97.5214H74.0097V95.543H176.634V97.5214ZM74.4727 97.3025H176.18V95.7619H74.4727V97.3025Z" fill="#456224"/>
<path d="M176.407 97.5234H74.237V99.283H176.407V97.5234Z" fill="#96C053"/>
<path d="M176.634 99.3925H74.0097V97.4141H176.634V99.3925ZM74.4727 99.1736H176.18V97.633H74.4727V99.1736Z" fill="#456224"/>
<path d="M139.356 84.3477H111.288V99.392H139.356V84.3477Z" fill="#AAABA3"/>
<path d="M137.251 84.3477H113.393V99.392H137.251V84.3477Z" fill="#F2EDCD"/>
<g style="mix-blend-mode:multiply">
<path d="M101.624 121.82C101.624 121.82 160.538 125.936 169.715 140.442L188.101 121.449L101.615 121.82H101.624Z" fill="#C3C5CA"/>
</g>
<g style="mix-blend-mode:multiply">
<path d="M86.4023 121.449L124.304 99.5859L86.4023 99.9648V121.449Z" fill="#C3C5CA"/>
</g>
<path d="M101.859 69.875H70.9365V150.257H101.859V69.875Z" fill="#456224"/>
<path d="M100.512 71.1562H72.292V148.752H100.512V71.1562Z" fill="#96C053"/>
<path d="M94.7027 150.231C94.93 146.476 98.0366 143.504 101.85 143.504V150.231H94.6943H94.7027Z" fill="#456224"/>
<path d="M78.1013 69.875C77.8655 73.6298 74.759 76.6016 70.9453 76.6016V69.875H78.1097H78.1013Z" fill="#456224"/>
<path d="M94.7027 69.875C94.93 73.6298 98.0366 76.6016 101.85 76.6016V69.875H94.6943H94.7027Z" fill="#456224"/>
<path d="M78.1013 150.258C77.8655 146.503 74.759 143.531 70.9453 143.531V150.258H78.1097H78.1013Z" fill="#456224"/>
<path d="M86.4015 121.052C80.3316 121.052 75.415 116.136 75.415 110.057C75.415 103.979 80.34 99.0625 86.4015 99.0625C92.463 99.0625 97.3965 103.987 97.3965 110.057C97.3965 116.127 92.4799 121.052 86.4015 121.052Z" fill="#456224"/>
<path d="M86.4018 139.088C82.1756 139.088 78.7492 137.261 78.7492 135.005C78.7492 132.749 82.1756 130.922 86.4018 130.922C90.628 130.922 94.0545 132.749 94.0545 135.005C94.0545 137.261 90.628 139.088 86.4018 139.088Z" fill="#456224"/>
<path d="M86.4018 89.2053C82.1756 89.2053 78.7492 87.3784 78.7492 85.1222C78.7492 82.8659 82.1756 81.0391 86.4018 81.0391C90.628 81.0391 94.0545 82.8659 94.0545 85.1222C94.0545 87.3784 90.628 89.2053 86.4018 89.2053Z" fill="#456224"/>
<path d="M97.2031 93.3476C96.9842 93.3476 96.8074 93.1708 96.8074 92.9519V77.2004C96.8074 76.9815 96.9842 76.8047 97.2031 76.8047C97.422 76.8047 97.5988 76.9815 97.5988 77.2004V92.9603C97.5988 93.1792 97.422 93.356 97.2031 93.356V93.3476Z" fill="#456224"/>
<path d="M76.434 143.278C76.2151 143.278 76.0383 143.101 76.0383 142.882V127.122C76.0383 126.903 76.2151 126.727 76.434 126.727C76.6529 126.727 76.8297 126.903 76.8297 127.122V142.882C76.8297 143.101 76.6529 143.278 76.434 143.278Z" fill="#456224"/>
<path d="M101.859 99.5H70.9365V121.532H101.859V99.5Z" fill="#AAABA3"/>
<path d="M101.859 101.152H70.9365V119.884H101.859V101.152Z" fill="#F2EDCD"/>
</svg>
